<svg width="19" height="20" viewBox="0 0 19 20" fill="none" xmlns="http://www.w3.org/2000/svg">
<path d="M3.66699 12.4998H2.83366C2.39163 12.4998 1.96771 12.3242 1.65515 12.0117C1.34259 11.6991 1.16699 11.2752 1.16699 10.8332V3.33317C1.16699 2.89114 1.34259 2.46722 1.65515 2.15466C1.96771 1.8421 2.39163 1.6665 2.83366 1.6665H10.3337C10.7757 1.6665 11.1996 1.8421 11.5122 2.15466C11.8247 2.46722 12.0003 2.89114 12.0003 3.33317V4.1665M8.66699 7.49984H16.167C17.0875 7.49984 17.8337 8.24603 17.8337 9.1665V16.6665C17.8337 17.587 17.0875 18.3332 16.167 18.3332H8.66699C7.74652 18.3332 7.00033 17.587 7.00033 16.6665V9.1665C7.00033 8.24603 7.74652 7.49984 8.66699 7.49984Z" stroke="#120B48" stroke-width="1.67" stroke-linecap="round" stroke-linejoin="round"/>
</svg>
